# xmcd
#
# Track frame offsets:
#	150
#	18510
#	30958
#	53303
#	66983
#	89825
#	102708
#	123730
#	140708
#	164140
#
# Disc length: 2479 seconds
# Revision: 7
# Processed by: cddbd v1.5.2PL0 Copyright (c) Steve Scherf et al.
# Submitted via: dBpowerAMP V12.0
#
DISCID=9309ad0a
DTITLE=Chris LeDoux - Haywire
DYEAR=1994
DGENRE=Country
TTITLE0=Honky Tonk World
TTITLE1=Dallas Days and Fort Worth Nights
TTITLE2=Tougher Than the Rest
TTITLE3=Big Love
TTITLE4=Love Needs a Fool
TTITLE5=Slow Down
TTITLE6=Sons of the Pioneers
TTITLE7=Billy the Kid
TTITLE8=Hairtrigger Colt’s .44
TTITLE9=Light of the World
EXTD=
EXTT0=
EXTT1=
EXTT2=
EXTT3=
EXTT4=
EXTT5=
EXTT6=
EXTT7=
EXTT8=
EXTT9=
PLAYORDER=
